<?xml version="1.0" encoding="UTF-8" standalone="no"?>
<!-- Created with Inkscape (http://www.inkscape.org/) -->

<svg
   xmlns:dc="http://purl.org/dc/elements/1.1/"
   xmlns:cc="http://creativecommons.org/ns#"
   xmlns:rdf="http://www.w3.org/1999/02/22-rdf-syntax-ns#"
   xmlns:svg="http://www.w3.org/2000/svg"
   xmlns="http://www.w3.org/2000/svg"
   xmlns:sodipodi="http://sodipodi.sourceforge.net/DTD/sodipodi-0.dtd"
   xmlns:inkscape="http://www.inkscape.org/namespaces/inkscape"
   width="432.21823"
   height="104.90752"
   viewBox="0 0 432.21823 104.90752"
   id="svg2"
   version="1.1"
   inkscape:version="0.91 r13725"
   sodipodi:docname="LOGO.svg">
  <defs
     id="defs4" />
  <sodipodi:namedview
     id="base"
     pagecolor="#ffffff"
     bordercolor="#666666"
     borderopacity="1.0"
     inkscape:pageopacity="0.0"
     inkscape:pageshadow="2"
     inkscape:zoom="1.4"
     inkscape:cx="364.23633"
     inkscape:cy="27.995635"
     inkscape:document-units="px"
     inkscape:current-layer="text8014"
     showgrid="false"
     inkscape:window-width="1920"
     inkscape:window-height="1027"
     inkscape:window-x="-8"
     inkscape:window-y="-8"
     inkscape:window-maximized="1"
     units="px"
     fit-margin-top="0.1"
     fit-margin-left="0"
     fit-margin-right="0"
     fit-margin-bottom="0" />
  <metadata
     id="metadata7">
    <rdf:RDF>
      <cc:Work
         rdf:about="">
        <dc:format>image/svg+xml</dc:format>
        <dc:type
           rdf:resource="http://purl.org/dc/dcmitype/StillImage" />
        <dc:title></dc:title>
      </cc:Work>
    </rdf:RDF>
  </metadata>
  <g
     inkscape:label="レイヤー 1"
     inkscape:groupmode="layer"
     id="layer1"
     transform="translate(62.59763,-834.41888)">
    <g
       transform="matrix(0.96183649,0,0,1.0396777,-122.85714,-277.85714)"
       style="font-style:normal;font-variant:normal;font-weight:normal;font-stretch:normal;font-size:142.08815002px;line-height:125%;font-family:'8514fix';-inkscape-font-specification:'8514fix';letter-spacing:0px;word-spacing:0px;fill:#000000;fill-opacity:1;stroke:none;stroke-width:1px;stroke-linecap:butt;stroke-linejoin:miter;stroke-opacity:1"
       id="text8014">
      <path
         d="m 87.765659,1150.6811 58.208961,0 q 2.15075,0 3.26081,-0.9713 1.11007,-0.9713 1.80386,-3.469 l 2.22012,0 0,24.4908 -2.22012,0 q -0.69379,-2.4976 -1.80386,-3.4689 -1.11006,-0.9714 -3.26081,-0.9714 l -83.324148,0 0,-2.2201 q 2.49764,-0.6938 3.46894,-1.8038 0.97131,-1.1101 0.97131,-3.2608 l 0,-80.1328 q 0,-2.1507 -0.97131,-3.2608 -0.9713,-1.11 -3.46894,-1.8038 l 0,-2.2202 29.555437,0 0,2.2202 q -2.49764,0.6244 -3.46895,1.8038 -0.9713,1.1101 -0.9713,3.2608 l 0,71.8073 z"
         style="font-style:normal;font-variant:normal;font-weight:normal;font-stretch:normal;font-family:'Copperplate Gothic Bold';-inkscape-font-specification:'Copperplate Gothic Bold, ';fill:#ffffff"
         id="path8036"
         inkscape:connector-curvature="0"
         inkscape:export-filename="C:\Users\Michaelbobu\Desktop\log.svg"
         inkscape:export-xdpi="300"
         inkscape:export-ydpi="300" />
      <path
         d="m 213.89665,1069.9239 c 16.51219,0 29.60169,4.4634 39.2685,13.3902 10.22183,9.343 15.33275,21.415 15.33275,36.2158 0,9.0655 -2.45139,17.5298 -7.35417,25.3927 -9.5743,15.3559 -25.27708,23.0338 -47.10833,23.0338 -16.37344,0 -29.39356,-4.4633 -39.06036,-13.3901 -5.1803,-4.764 -9.11178,-10.4762 -11.79443,-17.1366 -2.35889,-5.8741 -3.53833,-12.0488 -3.53833,-18.5242 0,-9.4818 2.42827,-18.1542 7.2848,-26.0171 9.29678,-15.0321 24.9533,-22.6869 46.96957,-22.9645 z m 0.81203,66.1795 c -9.01927,0 -17.27795,-47.4703 -23.29079,-42.1049 -7.12291,6.3366 -10.68437,14.6389 -10.68437,24.907 0,10.2681 3.56146,18.5704 10.68437,24.9071 6.01284,5.3653 13.57515,8.0479 22.68692,8.0479 9.11177,0 16.65096,-2.6826 22.61755,-8.0479 3.56145,-3.1915 6.29036,-7.0998 8.18672,-11.7251 1.66509,-4.1165 2.49764,-8.3717 2.49764,-12.7657 0,-10.7306 -3.56145,-19.1717 -10.68436,-25.3233 -6.0591,-5.2729 -12.90191,42.1974 -22.01368,42.1049 z"
         style="font-style:normal;font-variant:normal;font-weight:normal;font-stretch:normal;font-family:'Copperplate Gothic Bold';-inkscape-font-specification:'Copperplate Gothic Bold, ';fill:#ffffff"
         id="path8038"
         inkscape:connector-curvature="0"
         sodipodi:nodetypes="ccscsccsccccscsccscc"
         inkscape:export-filename="C:\Users\Michaelbobu\Desktop\log.svg"
         inkscape:export-xdpi="300"
         inkscape:export-ydpi="300" />
      <path
         d="m 367.77923,1132.2263 -23.38072,0 q -2.15075,0 -3.26081,0.9713 -1.04069,0.9713 -1.73448,3.4689 l -2.22012,0 0,-22.0625 2.22012,0 q 0.69379,2.567 1.73448,3.5383 1.11006,0.902 3.26081,0.902 l 44.95758,0 0,2.2201 q -2.49764,0.6938 -3.53833,1.8038 -0.9713,1.1101 -0.9713,3.2609 l 0,19.4261 q 0,2.1507 0.9713,3.2608 0.97131,1.11 3.53833,1.8038 l 0,1.7345 q -26.98842,15.4021 -52.31175,15.4021 -22.96444,0 -37.46465,-10.8925 -18.24667,-13.737 -18.24667,-38.1584 0,-22.7563 16.23468,-36.2158 15.40213,-12.7658 40.9336,-12.7658 8.11734,0 15.26337,1.5264 7.21542,1.4569 16.37344,4.9953 4.71777,1.8732 6.72976,1.8732 1.45696,0 3.39957,-1.5957 l 1.94261,1.0407 -11.10063,22.6869 -2.01199,-1.0407 q -0.0694,-2.2895 -0.62441,-3.2608 -0.55504,-1.0407 -2.49765,-2.4976 -4.23211,-3.1915 -12.41883,-5.4116 -8.18672,-2.2895 -15.47152,-2.2895 -14.8471,0 -24.62953,8.3255 -11.03126,9.4355 -11.03126,24.907 0,14.9859 10.75374,24.2133 9.85181,8.4642 25.94774,8.4642 7.83982,0 15.47151,-1.8038 7.63169,-1.8039 13.18201,-4.9259 l 0,-12.9045 z"
         style="font-style:normal;font-variant:normal;font-weight:normal;font-stretch:normal;font-family:'Copperplate Gothic Bold';-inkscape-font-specification:'Copperplate Gothic Bold, ';fill:#ffffff"
         id="path8040"
         inkscape:connector-curvature="0"
         inkscape:export-filename="C:\Users\Michaelbobu\Desktop\log.svg"
         inkscape:export-xdpi="300"
         inkscape:export-ydpi="300" />
      <path
         d="m 457.41688,1069.9239 c 16.51219,0 29.60169,4.4634 39.2685,13.3902 10.22184,9.343 15.33276,21.415 15.33276,36.2158 0,9.0655 -2.45139,17.5298 -7.35418,25.3927 -9.5743,15.3559 -25.27707,23.0338 -47.10832,23.0338 -16.37344,0 -29.39356,-4.4633 -39.06037,-13.3901 -5.18029,-4.764 -9.11177,-10.4762 -11.79443,-17.1366 -2.35888,-5.8741 -3.53832,-12.0488 -3.53832,-18.5242 0,-9.4818 2.42826,-18.1542 7.28479,-26.0171 9.29678,-15.0321 24.9533,-22.6869 46.96957,-22.9645 z m 0.0694,16.0266 c -9.01927,0 -16.53532,2.6826 -22.54817,8.048 -7.12291,6.3366 -10.68436,14.6389 -10.68436,24.907 0,10.2681 3.56145,18.5704 10.68436,24.9071 6.01285,5.3653 14.31778,-38.6698 23.42956,-38.6698 9.11176,0 15.90832,44.0351 21.87491,38.6698 3.56145,-3.1915 6.29036,-7.0998 8.18672,-11.7251 1.6651,-4.1165 2.49765,-8.3717 2.49765,-12.7657 0,-10.7306 -3.56146,-19.1717 -10.68437,-25.3233 -6.05909,-5.2729 -13.64453,-7.9555 -22.7563,-8.048 z"
         style="font-style:normal;font-variant:normal;font-weight:normal;font-stretch:normal;font-family:'Copperplate Gothic Bold';-inkscape-font-specification:'Copperplate Gothic Bold, ';fill:#ffffff"
         id="path8042"
         inkscape:connector-curvature="0"
         sodipodi:nodetypes="ccscsccsccccscsccscc"
         inkscape:export-filename="C:\Users\Michaelbobu\Desktop\log.svg"
         inkscape:export-xdpi="300"
         inkscape:export-ydpi="300" />
    </g>
    <flowRoot
       xml:space="preserve"
       id="flowRoot8018"
       style="font-style:normal;font-variant:normal;font-weight:normal;font-stretch:normal;font-size:40px;line-height:125%;font-family:'8514fix';-inkscape-font-specification:'8514fix';letter-spacing:0px;word-spacing:0px;fill:#000000;fill-opacity:1;stroke:none;stroke-width:1px;stroke-linecap:butt;stroke-linejoin:miter;stroke-opacity:1"><flowRegion
         id="flowRegion8020"><rect
           id="rect8022"
           width="77.14286"
           height="77.14286"
           x="206.42857"
           y="278.07648"
           style="font-style:normal;font-variant:normal;font-weight:normal;font-stretch:normal;font-family:'8514fix';-inkscape-font-specification:'8514fix'" /></flowRegion><flowPara
         id="flowPara8024"></flowPara></flowRoot>  </g>
</svg>
