<?xml version="1.0" encoding="UTF-8" standalone="no"?>
<!-- Created with Inkscape (http://www.inkscape.org/) -->

<svg
   xmlns:dc="http://purl.org/dc/elements/1.1/"
   xmlns:cc="http://creativecommons.org/ns#"
   xmlns:rdf="http://www.w3.org/1999/02/22-rdf-syntax-ns#"
   xmlns:svg="http://www.w3.org/2000/svg"
   xmlns="http://www.w3.org/2000/svg"
   xmlns:sodipodi="http://sodipodi.sourceforge.net/DTD/sodipodi-0.dtd"
   xmlns:inkscape="http://www.inkscape.org/namespaces/inkscape"
   width="700"
   height="155"
   viewBox="0 0 700.00002 155"
   id="svg8583"
   version="1.1"
   inkscape:version="0.91 r13725"
   sodipodi:docname="LOGO.svg">
  <defs
     id="defs8585" />
  <sodipodi:namedview
     id="base"
     pagecolor="#ffffff"
     bordercolor="#666666"
     borderopacity="1.0"
     inkscape:pageopacity="0.0"
     inkscape:pageshadow="2"
     inkscape:zoom="0.98994949"
     inkscape:cx="226.74836"
     inkscape:cy="217.05136"
     inkscape:document-units="px"
     inkscape:current-layer="flowRoot9164"
     showgrid="false"
     inkscape:window-width="1920"
     inkscape:window-height="1027"
     inkscape:window-x="-8"
     inkscape:window-y="-8"
     inkscape:window-maximized="1"
     units="px" />
  <metadata
     id="metadata8588">
    <rdf:RDF>
      <cc:Work
         rdf:about="">
        <dc:format>image/svg+xml</dc:format>
        <dc:type
           rdf:resource="http://purl.org/dc/dcmitype/StillImage" />
        <dc:title></dc:title>
      </cc:Work>
    </rdf:RDF>
  </metadata>
  <g
     inkscape:label="レイヤー 1"
     inkscape:groupmode="layer"
     id="layer1"
     transform="translate(0,-897.36219)">
    <g
       transform="matrix(1.0282395,0,0,1,-18.171315,0)"
       style="font-style:normal;font-weight:normal;font-size:40px;line-height:125%;font-family:Sans;letter-spacing:0px;word-spacing:0px;fill:#000000;fill-opacity:1;stroke:none;stroke-width:1px;stroke-linecap:butt;stroke-linejoin:miter;stroke-opacity:1"
       id="flowRoot9131">
      <path
         d="m 322.2914,1001.7647 c 1.11455,-1.90289 1.95726,-3.57472 2.52813,-5.01549 0.54368,-1.25046 0.92427,-2.63686 1.14174,-4.15917 3.37084,1.11455 5.43683,1.84852 6.19799,2.20191 0.73397,0.35341 1.10095,0.73398 1.10095,1.14174 0,0.76116 -1.14174,1.14173 -3.42521,1.14173 -2.22909,2.33785 -3.84655,3.90098 -4.85236,4.68928 l 20.63278,0 c 1.82134,-1.84852 2.89512,-2.77279 3.22133,-2.77279 0.43495,0 1.57668,0.81553 3.4252,2.44659 0.89707,0.7612 1.34562,1.3728 1.34562,1.8349 0,0.5165 -0.72038,1.2641 -2.16114,2.2427 l 0,7.7068 0.32621,18.8385 c 0,1.4951 -1.11456,2.2427 -3.34366,2.2427 -1.44076,0 -2.16114,-0.5844 -2.16114,-1.7534 l 0,-2.4058 -36.90251,0 0,1.7534 c 0,1.5495 -1.06019,2.3242 -3.18056,2.3242 -1.49513,0 -2.24268,-0.6388 -2.24268,-1.9165 l 0.32621,-18.0638 c 0,-6.9047 -0.16311,-12.0697 -0.48932,-15.49494 2.52812,1.06018 4.55335,2.06604 6.07566,3.01744 z m 23.97644,26.3006 0,-11.5804 -36.90251,0 0,11.5804 z m 0,-13.6599 0,-10.5611 -36.90251,0 0,10.5611 z m -12.76297,-46.485 c -0.10874,-0.0544 -0.1631,-0.1359 -0.1631,-0.24466 0,-0.32621 0.1631,-0.48931 0.48931,-0.48931 l 0.0815,0 c 3.6155,0.86989 6.40188,2.09318 8.35914,3.66987 1.76697,1.41358 2.65045,2.94948 2.65045,4.60771 0,1.93008 -0.82911,2.89512 -2.48735,2.89512 -3.73589,-2.47773 -6.72542,-6.06923 -8.93,-10.43873 z m -34.33361,0.61164 c -0.10875,-0.0815 -0.16311,-0.17668 -0.16311,-0.28542 0,-0.32622 0.16311,-0.48932 0.48932,-0.48932 l 0.0815,0 c 3.47957,0.73397 6.29314,1.95725 8.44069,3.66986 1.84852,1.49513 2.77279,3.05822 2.77279,4.68927 0,0.84271 -0.29903,1.5495 -0.89709,2.12037 -0.48931,0.48931 -1.06017,0.73396 -1.71259,0.73396 -3.91069,-2.31915 -3.09577,-2.78344 -9.01157,-10.43872 z m 54.35476,10.03097 0.1631,0 c 0.29902,0 0.44853,0.19028 0.44853,0.57086 0,0.21747 -0.0679,0.36698 -0.20387,0.44854 -6.00771,3.53395 -12.79015,6.59217 -20.34736,9.17466 -0.27184,1.65824 -0.72038,2.48736 -1.34561,2.48736 -0.57087,0 -1.57668,-2.25629 -3.01744,-6.76887 1.65823,-0.1631 3.11258,-0.35339 4.36305,-0.57086 6.66012,-1.1961 13.30666,-2.97667 19.9396,-5.34169 z m -35.06759,0.89707 0.12233,0 c 0.29902,0 0.44854,0.19029 0.44854,0.57087 0,0.21747 -0.068,0.36699 -0.20388,0.44854 -7.17662,3.80578 -14.47558,6.97275 -21.89685,9.50087 -0.3534,1.79415 -0.85631,2.69123 -1.50873,2.69123 -0.6796,0 -1.68542,-2.36502 -3.01744,-7.09507 1.35921,-0.0815 2.78638,-0.25825 4.28151,-0.53009 7.66593,-1.46794 14.92411,-3.33006 21.77452,-5.58635 z m 41.99955,-13.86393 0,9.50088 0.1631,14.96488 c 0,2.20192 -0.78834,3.80579 -2.36501,4.8116 -1.00583,0.6796 -2.36503,1.0194 -4.07763,1.0194 -0.48932,0 -0.80194,-0.27184 -0.93786,-0.81552 -0.21747,-1.08737 -0.81552,-1.8893 -1.79415,-2.4058 -0.92427,-0.46214 -2.78638,-1.01941 -5.58635,-1.67183 -0.19029,-0.0544 -0.28543,-0.21746 -0.28543,-0.48931 0,-0.46213 0.1631,-0.66601 0.48931,-0.61165 3.75142,0.32621 6.48342,0.48932 8.19603,0.48932 0.95144,0 1.42717,-0.44854 1.42717,-1.34562 l 0,-24.87351 -19.45028,0 c -2.44657,0 -4.45821,0.19029 -6.03488,0.57086 l -0.81553,-3.22133 c 2.25628,0.38059 4.53975,0.57088 6.85041,0.57088 l 18.87941,0 c 1.60386,-1.71261 2.60968,-2.56891 3.01744,-2.56891 0.3534,0 1.3728,0.72038 3.05823,2.16114 0.89707,0.76116 1.34561,1.37281 1.34561,1.83494 0,0.48931 -0.69319,1.18251 -2.07959,2.07958 z m -35.31224,-0.0815 0,9.33776 0.16311,14.63869 c 0,2.36502 -0.86989,4.02326 -2.60968,4.97469 -1.03301,0.62524 -2.36503,0.93786 -3.99608,0.93786 -0.40777,0 -0.65242,-0.068 -0.73397,-0.20388 -0.10874,-0.13592 -0.20388,-0.46213 -0.28544,-0.97863 -0.13592,-0.86989 -0.72037,-1.56309 -1.75338,-2.07959 -1.00581,-0.48932 -2.67764,-0.97863 -5.01548,-1.46795 -0.21747,-0.0544 -0.32621,-0.20386 -0.32621,-0.44854 0,-0.32621 0.13592,-0.48931 0.40777,-0.48931 3.66986,0.21747 6.37468,0.32621 8.11447,0.32621 0.84271,0 1.26406,-0.44854 1.26406,-1.34562 l 0,-24.5473 -21.2852,0 c -2.63687,0 -4.67568,0.19029 -6.11645,0.57086 l -0.81552,-3.22132 c 2.17473,0.38058 4.48539,0.57087 6.93197,0.57087 l 20.79589,0 c 1.46794,-1.65823 2.4058,-2.48735 2.81357,-2.48735 0.29901,0 1.30483,0.69319 3.01743,2.07958 0.95145,0.81553 1.42718,1.42717 1.42718,1.83494 0,0.43495 -0.66602,1.10096 -1.99804,1.99803 z"
         style="font-style:normal;font-variant:normal;font-weight:normal;font-stretch:normal;font-size:80px;line-height:125%;font-family:'Yu Mincho';-inkscape-font-specification:'Yu Mincho, Normal';text-align:start;writing-mode:lr-tb;text-anchor:start;fill:#ffffff"
         id="path9154"
         inkscape:connector-curvature="0"
         sodipodi:nodetypes="ccccscccscscccssccssccccccccccccccccssccsccccssccscccccssccsccccssccscccccccscccscsscsccscscscccccsccccscsscsccscscsc" />
      <path
         d="m 103.56543,922.04108 c -8.010564,11.06298 -10.740186,17.99409 -9.807173,27.66797 l 0,0.44196 c 0,0.7857 -0.810253,1.17855 -2.43075,1.17855 -0.589277,0 -0.982117,-0.34375 -1.178543,-1.03124 -2.406198,-7.51322 -6.015495,-13.13587 -10.827886,-16.86793 -4.124914,-3.241 -8.814541,-4.86149 -14.068883,-4.86149 -6.138261,0 -10.975204,1.93969 -14.51084,5.81906 -2.995469,3.33922 -4.493203,7.53777 -4.493203,12.5957 0,8.54446 5.524431,15.37019 16.573293,20.47723 l 7.586884,3.46198 c 10.705119,4.9106 18.169242,10.1895 22.392363,15.83669 3.584741,4.76329 5.377112,10.45959 5.377112,17.08894 0,10.4595 -3.584741,18.5128 -10.754225,24.1601 -6.383797,5.0088 -15.026454,7.5132 -25.927998,7.5132 -7.856968,0 -16.646951,-1.7679 -26.369948,-5.3035 -1.915135,-6.7275 -3.486529,-14.2652 -4.71418,-22.6132 -0.404507,-2.4752 0.325681,-2.7378 2.136113,-2.7254 0.413789,0 9.939851,-0.3549 10.583238,-0.3502 0.246312,0 -7.135533,3.4471 -7.027931,3.7054 3.044573,8.2498 5.381993,12.1376 11.176506,16.6064 4.910605,3.8793 10.214058,5.819 15.910354,5.819 7.2677,0 13.01311,-2.2589 17.236231,-6.7766 3.584745,-3.8303 5.377118,-8.6181 5.377118,-14.3635 0,-5.9418 -1.816925,-10.95063 -5.450784,-15.02644 -3.290108,-3.68296 -8.716323,-7.41501 -16.278656,-11.19617 l -7.586879,-3.75662 c -8.691769,-4.37043 -14.70726,-8.9864 -18.046472,-13.8479 -2.946362,-4.27223 -4.419543,-9.40381 -4.419543,-15.39475 0,-8.24982 3.265552,-14.90368 9.796655,-19.9616 5.745407,-4.41955 12.890338,-6.62932 21.434792,-6.62932 4.321329,0 8.446242,0.61382 12.37472,1.84148 2.848153,0.8839 8.835644,4.09385 12.322179,4.09385 1.816922,0 12.094056,-7.30701 13.616336,-7.60165 z"
         style="font-style:normal;font-variant:normal;font-weight:normal;font-stretch:normal;font-size:90px;line-height:125%;font-family:'Yu Mincho';-inkscape-font-specification:'Yu Mincho, Normal';text-align:start;writing-mode:lr-tb;text-anchor:start;fill:#ffffff"
         id="path9148"
         inkscape:connector-curvature="0"
         sodipodi:nodetypes="ccssccscscccscscccsccscsccccscscsc" />
      <path
         d="m 191.06189,1033.0911 c -14.09344,-0.5402 -26.54183,-0.8103 -37.34516,-0.8103 -12.08007,0 -25.01952,0.2701 -38.81833,0.8103 -0.78569,0 -1.17853,-0.663 -1.17853,-1.9888 0,-1.1295 0.39284,-1.7679 1.17853,-1.9152 3.9776,-0.3928 6.70299,-0.8593 8.17616,-1.3995 1.17855,-0.4911 2.11157,-1.2276 2.79905,-2.2098 1.22765,-1.817 1.84148,-8.4216 1.84148,-19.8142 l 0,-52.88721 c 0,-7.85696 -0.12277,-12.89033 -0.3683,-15.1001 -0.19643,-1.6696 -0.63837,-3.04458 -1.32586,-4.12491 -1.22765,-1.81694 -5.20524,-2.97093 -11.93276,-3.46199 -0.88392,-0.0982 -1.32588,-0.68749 -1.32588,-1.76781 0,-1.6205 0.44196,-2.43074 1.32588,-2.43074 10.11584,0.49105 22.66243,0.73658 37.63977,0.73658 13.84791,0 26.05076,-0.24553 36.60856,-0.73658 1.27676,12.66936 2.13612,20.62453 2.57807,23.86554 l 0,0.44194 c 0,0.88392 -0.81025,1.32587 -2.43075,1.32587 -0.54017,0 -0.93301,-0.29464 -1.17854,-0.88392 -2.20978,-6.6293 -5.42623,-11.61356 -9.64935,-14.95279 -3.68296,-2.94636 -11.26983,-4.41953 -22.76064,-4.41953 -7.16949,0 -11.56448,1.20309 -13.18498,3.60929 -1.08033,1.6205 -1.6205,5.81907 -1.6205,12.59569 l 0,26.6646 c 1.71871,0.0982 4.93516,0.14733 9.64934,0.14733 10.80334,0 17.43265,-1.00668 19.88794,-3.02003 2.60263,-2.06245 4.12492,-5.27889 4.56687,-9.64934 0.0982,-0.8839 0.63839,-1.32586 1.62051,-1.32586 1.52228,0 2.49893,0.47018 2.28342,1.32586 -4.22068,16.75761 -3.02279,19.84043 0,31.74705 0,0.88392 -0.76114,1.32588 -2.28342,1.32588 -0.98213,0 -1.5223,-0.49106 -1.62051,-1.47319 -0.44195,-5.54898 -2.06245,-9.28104 -4.8615,-11.19616 -2.65173,-1.91515 -9.18283,-2.87271 -19.59331,-2.87271 -3.14278,0 -6.35924,0.0982 -9.64934,0.29463 l 0,26.22261 c 0,9.8704 0.71204,15.8612 2.13612,17.9728 1.08033,1.5714 2.70083,2.6517 4.8615,3.2409 2.16065,0.5402 5.54897,0.8103 10.16494,0.8103 7.36591,0 13.11132,-0.5156 17.23622,-1.5468 3.48654,-0.8348 6.60477,-2.2343 9.35472,-4.1986 4.02668,-2.9463 7.7833,-7.9797 11.26983,-15.1 0.29463,-0.6875 0.66292,-1.0313 1.10489,-1.0313 1.91514,0 2.8727,0.5648 2.8727,1.6942 l -0.14733,0.7366 c -1.81693,7.9061 -4.44411,16.1558 -7.88153,24.7494 z"
         style="font-style:normal;font-variant:normal;font-weight:normal;font-stretch:normal;font-size:90px;line-height:125%;font-family:'Yu Mincho';-inkscape-font-specification:'Yu Mincho, Normal';text-align:start;writing-mode:lr-tb;text-anchor:start;fill:#ffffff"
         id="path9150"
         inkscape:connector-curvature="0"
         sodipodi:nodetypes="cscscccsscccscsccssccscscsccsscsccscsccscccscccc" />
      <path
         d="m 252.84942,1005.8423 0,17.289 q 0,2.8137 1.34563,3.4253 1.54949,0.6524 7.17662,0.6524 6.97273,0 9.6232,-0.4893 2.32424,-0.4078 3.30287,-1.5088 1.67183,-1.9572 3.50675,-9.46 0.0815,-0.2854 0.48932,-0.2854 0.6932,0 0.6932,0.4893 -0.1631,6.1572 -0.1631,7.1765 0,1.6311 1.26406,2.0796 1.34562,0.4486 1.34562,2.1612 0,2.3243 -3.91452,3.4252 -4.24073,1.1825 -16.88138,1.1825 -8.35913,0 -10.88726,-1.7125 -2.16114,-1.4272 -2.16114,-5.3826 l 0.1631,-6.6057 0,-12.4367 -21.04055,0 0,2.0796 q 0,2.0796 -3.34365,2.0796 -2.24269,0 -2.24269,-1.7534 l 0.40775,-25.52592 q 0,-17.69689 -0.40775,-22.71237 3.50675,1.46794 6.32032,3.18055 l 32.78411,0 q 2.65046,-2.77279 3.13977,-2.77279 0.65242,0 3.50676,2.36502 1.34562,1.22329 1.34562,1.83493 0,0.89708 -2.16115,2.4058 l 0,13.12996 0.40777,27.11622 q 0,2.3243 -3.18055,2.3243 -2.4058,0 -2.4058,-1.835 l 0,-1.9165 -8.03293,0 z m 8.03293,-2.0796 0,-11.94741 -34.17051,0 0,11.94741 34.17051,0 z m 0,-14.027 0,-11.17269 -34.17051,0 0,11.17269 34.17051,0 z m 0,-13.25229 0,-11.21347 -34.17051,0 0,11.21347 34.17051,0 z m -53.13147,57.37219 q -0.65242,0.1223 -0.65242,-0.734 0,-0.2855 0.24466,-0.367 9.37854,-2.6505 15.82118,-7.6252 5.54558,-4.3222 8.11448,-9.827 1.79416,-3.8329 2.03882,-8.0329 5.21936,1.1825 6.56498,1.7126 1.22328,0.4485 1.22328,1.0602 0,0.9378 -2.81356,1.7534 -5.42324,18.1861 -30.54142,22.0599 z"
         style="font-style:normal;font-variant:normal;font-weight:normal;font-stretch:normal;font-size:80px;line-height:125%;font-family:'Yu Mincho';-inkscape-font-specification:'Yu Mincho, Normal';text-align:start;writing-mode:lr-tb;text-anchor:start;fill:#ffffff"
         id="path9152"
         inkscape:connector-curvature="0" />
      <path
         d="m 416.65036,996.13111 c 0,-0.36213 0.28155,-0.54319 0.84463,-0.54319 0.24481,0 3.79576,1.3433 4.04059,1.46402 4.92086,2.00374 8.92366,5.04556 12.00838,9.12556 2.79094,3.6936 4.18641,7.4959 4.18641,11.4068 0,3.2591 -0.9548,4.8887 -2.86438,4.8887 -0.83239,0 -1.48116,-0.3259 -1.94631,-0.9778 -0.58758,-0.7966 -1.41996,-1.3881 -2.49716,-1.7744 -1.02825,-0.3621 -2.65629,-0.6759 -4.88415,-0.9415 -0.66102,-0.072 -0.99152,-0.3983 -0.99152,-0.9777 0,-0.3621 0.37948,-0.5794 1.13842,-0.6518 2.93783,-0.338 4.84742,-0.5674 5.72877,-0.688 0.75893,-0.1208 1.13841,-0.5673 1.13841,-1.3399 0,-2.6797 -1.29754,-5.7939 -3.89264,-9.3428 -2.32578,-3.1867 -4.96983,-5.6008 -7.93214,-7.24245 -0.51412,-0.2897 -4.07731,-1.94686 -4.07731,-2.40554 z m -19.97619,36.95209 c -1.37099,0 -3.06025,-0.9898 -5.06776,-2.9694 -3.10921,-3.066 -5.23914,-7.17 -6.3898,-12.3122 -0.80789,-3.6453 -1.21185,-8.3651 -1.21185,-14.159 l 0.11017,-6.08369 c 0,-1.66577 -0.24482,-2.99356 -0.73446,-3.98337 -0.46515,-0.94151 -1.32202,-1.99167 -2.5706,-3.15047 -0.46515,-0.43454 -0.69773,-0.76046 -0.69773,-0.97773 0,-0.43456 0.35498,-0.65183 1.06496,-0.65183 1.12617,0 2.63181,0.79668 4.51692,2.39002 2.35027,1.95547 3.52541,3.75402 3.52541,5.39564 0,0.79667 -0.23259,1.85891 -0.69775,3.18669 -0.56309,1.64164 -0.84463,4.56274 -0.84463,8.76344 0,5.6008 0.67326,9.8255 2.01977,12.6742 1.29754,2.6797 2.53387,4.0196 3.709,4.0196 0.5631,0 1.06497,-0.3983 1.50564,-1.195 2.05648,-3.6454 4.79846,-8.1356 8.22594,-13.471 0.34275,-0.5552 2.46182,-3.8544 2.95147,-3.8544 0.56309,0 0.84463,0.2535 0.84463,0.7605 0,0.2897 -1.84978,3.7458 -2.14357,4.3252 -2.57061,4.3937 -4.55364,8.5943 -5.94911,12.6018 -0.51412,1.4968 -0.77118,2.4142 -0.77118,2.7522 0,0.6759 0.0979,1.2433 0.29378,1.7019 0.31827,0.676 0.4774,1.4485 0.4774,2.3176 0,1.2795 -0.72222,1.9193 -2.16665,1.9193 z"
         style="font-style:normal;font-variant:normal;font-weight:normal;font-stretch:normal;font-size:80px;line-height:125%;font-family:'Yu Mincho';-inkscape-font-specification:'Yu Mincho, Normal';text-align:start;writing-mode:lr-tb;text-anchor:start;fill:#ffffff"
         id="path9156"
         inkscape:connector-curvature="0"
         sodipodi:nodetypes="ssccsscccsccsccssscccccsscscscsccssccscss" />
      <path
         d="m 482.60576,991.04068 q 1.50564,2.31759 1.50564,5.46808 0,2.75214 -1.43219,7.27864 -3.89263,11.0086 -10.83325,19.6633 -4.11298,4.9611 -7.41803,4.9611 -3.41524,0 -6.02256,-3.8748 -2.64405,-4.1282 -2.64405,-9.7772 0,-10.7913 8.1892,-18.3959 8.66661,-8.00294 21.81342,-8.00294 12.11855,0 19.42641,7.38733 6.31634,6.37341 6.31634,15.75241 0,11.6241 -11.42083,18.3958 -8.62988,5.1422 -20.49138,5.794 -0.11017,0 -0.1836,0 -1.10169,0 -1.10169,-0.8329 0,-0.9053 1.28529,-1.195 11.97167,-2.0279 19.20609,-7.8581 7.74852,-6.2647 7.74852,-15.5713 0,-8.9082 -6.35306,-14.26763 -5.36153,-4.52656 -13.51402,-4.92489 -0.9548,-0.0724 -2.01977,-0.0724 -1.10168,0 -2.05648,0.0724 z m -2.31353,0.2897 q -9.10729,1.48471 -15.0564,7.49596 -6.096,6.11986 -6.096,14.66606 0,4.0557 1.79942,7.4959 1.39546,2.5348 3.5254,2.5348 1.98304,0 5.2881,-4.3093 6.86719,-8.9443 10.35585,-19.44594 1.06497,-3.00563 1.06497,-5.32322 0,-2.24516 -0.88134,-3.11426 z"
         style="font-style:normal;font-variant:normal;font-weight:normal;font-stretch:normal;font-size:80px;line-height:125%;font-family:'Yu Mincho';-inkscape-font-specification:'Yu Mincho, Normal';text-align:start;writing-mode:lr-tb;text-anchor:start;fill:#ffffff"
         id="path9158"
         inkscape:connector-curvature="0" />
      <path
         d="m 543.67369,1004.0039 0,3.9961 q 6.11644,1.5902 9.6232,4.6484 2.89512,2.569 2.89512,5.1378 0,3.0174 -2.32425,3.0174 -1.5495,0 -2.69124,-2.6912 -2.60968,-5.627 -7.50283,-8.9299 l 0,1.5087 0,5.1786 0.24466,17.9007 q 0,2.3243 -3.18055,2.3243 -2.16114,0 -2.16114,-1.9981 0,-0.2039 0.28544,-8.563 0.28542,-7.5436 0.36698,-15.0056 -3.79219,5.9533 -8.27758,10.2348 -3.46598,3.3028 -8.72612,6.9319 -0.12233,0.081 -0.24466,0.081 -0.61165,0 -0.61165,-0.6933 0,-0.1223 0.0815,-0.2038 10.31639,-9.4193 16.55516,-22.8754 l -8.68534,0 q -2.48735,0 -5.17859,0.4893 l -0.77474,-3.1398 q 3.30287,0.5709 5.87178,0.5709 l 9.74552,0 0,-0.8155 q 0,-6.07571 -0.40776,-9.7048 4.73005,0.57087 6.15722,1.01941 1.18251,0.36699 1.18251,0.97863 0,1.01941 -2.2427,1.99804 l 0,6.52422 6.85041,0 q 2.93589,-3.66989 3.58831,-3.66989 0.53009,0 3.83298,2.85439 1.59026,1.264 1.59026,2.0796 0,0.8155 -1.10095,0.8155 l -14.76101,0 z m 23.97644,25.322 0,3.7514 q 0,2.1612 -3.09899,2.1612 -1.99804,0 -1.99804,-1.6719 0,-0.6932 0.0408,-4.4446 0.1631,-12.4775 0.28543,-33.39569 0.0408,-2.32424 0.0815,-7.66593 0.0408,-4.19996 0.0815,-6.44266 -2.65046,2.97668 -4.1184,4.36306 -0.0815,0.0815 -0.20389,0.0815 -0.77474,0 -0.77474,-0.73398 0,-0.0815 0.0815,-0.20388 2.40581,-3.18055 4.97471,-8.72612 2.24269,-4.85237 3.46598,-9.21543 1.18251,-4.28151 1.42717,-7.33973 7.58438,1.8757 7.58438,3.099 0,0.97863 -3.09899,1.75338 -2.36502,6.64652 -5.99412,12.27365 l 0.77476,0.48932 10.88726,0 q 2.4058,-5.79024 3.75142,-10.92804 0.89707,-3.34366 1.0194,-5.87178 7.50283,1.95726 7.50283,3.2621 0,1.0194 -2.89512,1.59027 -3.05821,6.23877 -7.29894,11.94745 l 8.48146,0 q 3.01744,-3.83298 3.62909,-3.83298 0.73397,0 4.2815,2.93589 1.83493,1.42718 1.83493,2.2427 0,0.73398 -1.18251,0.73398 l -14.59789,0 0,13.37461 4.85236,0 q 2.60969,-3.4252 3.34366,-3.4252 0.61165,0 4.07763,2.77278 1.42717,1.22328 1.42717,1.99804 0,0.73396 -1.10096,0.73396 l -12.59986,0 0,13.70083 4.68926,0 q 2.65046,-3.5068 3.34366,-3.5068 0.48931,0 3.99607,2.8544 1.50873,1.2641 1.50873,1.998 0,0.734 -1.18252,0.734 l -12.3552,0 0,16.4736 6.76885,0 q 3.01745,-3.833 3.66987,-3.833 0.61164,0 4.24073,2.9359 1.67183,1.468 1.67183,2.2426 0,0.7341 -1.06019,0.7341 l -30.21521,0 z m 0,-36.41315 10.31639,0 0,-13.37461 -10.31639,0 0,13.37461 z m 0,2.07958 0,13.70087 10.31639,0 0,-13.70087 -10.31639,0 z m 0,15.78037 0,16.4736 10.31639,0 0,-16.4736 -10.31639,0 z m -27.6463,-36.73936 q -1.18252,8.52224 -5.34169,13.82316 -4.03685,5.09703 -11.74356,8.52223 -0.0408,0.0408 -0.12233,0.0408 -0.61165,0 -0.61165,-0.6932 0,-0.20387 0.1631,-0.32621 11.13193,-7.5436 13.04841,-21.28521 l -5.50479,0.0815 q -2.85434,0 -5.6679,0.57086 l -0.6932,-3.05821 q 2.52813,0.40776 4.77082,0.40776 0.97863,0 1.50872,0 l 5.83101,-0.0815 q 0.24465,-2.93589 0.24465,-6.11645 0,-2.97666 -0.32621,-6.32032 5.58636,0.73398 6.8912,1.22329 0.97863,0.36699 0.97863,1.10097 0,0.93784 -2.77279,1.99803 0,3.91452 -0.40777,8.11448 l 6.27955,-0.0815 q 1.83493,-2.44657 2.4058,-2.44657 0.81552,0 3.30288,2.24269 0.93785,0.81553 0.93785,1.50872 0,0.77475 -2.07958,2.03882 -0.40777,7.09507 -0.40777,11.70278 0,1.01941 0.32621,1.34562 0.32621,0.32621 1.26406,0.32621 1.5495,0 2.0796,-1.26406 0.57086,-1.14174 1.83493,-6.3611 0.0815,-0.32621 0.44854,-0.32621 0.48931,0 0.48931,0.40776 -0.28543,5.01548 -0.28543,5.17859 0,1.30484 1.0194,1.59027 1.10096,0.36699 1.10096,1.67183 0,1.67182 -1.83493,2.44657 -1.50873,0.57088 -5.95334,0.57088 -4.93392,0 -4.93392,-3.99608 0,-3.62909 0.53009,-14.63868 l -6.76886,0.0815 z"
         style="font-style:normal;font-variant:normal;font-weight:normal;font-stretch:normal;font-size:80px;line-height:125%;font-family:'Yu Mincho';-inkscape-font-specification:'Yu Mincho, Normal';text-align:start;writing-mode:lr-tb;text-anchor:start;fill:#ffffff"
         id="path9160"
         inkscape:connector-curvature="0" />
      <path
         d="m 659.15206,1009.9572 c -0.73398,4.2679 -2.09318,8.0601 -4.07762,11.3765 -4.05045,6.3883 -11.18629,11.0911 -21.40754,14.1087 l -0.12233,0 c -0.35339,0 -0.53009,-0.2447 -0.53009,-0.7341 0,-0.1902 0.0815,-0.3125 0.24465,-0.3669 7.96497,-3.7515 13.67364,-8.4 17.12603,-13.9455 3.23492,-5.2737 4.85238,-12.3687 4.85238,-21.28516 0,-1.30484 -0.0815,-2.78637 -0.24465,-4.44462 3.50675,0.40777 5.74945,0.76117 6.72808,1.06019 0.84271,0.27184 1.26407,0.67961 1.26407,1.22329 0,0.65242 -0.91068,1.29124 -2.73202,1.91648 -0.10874,1.87572 -0.19028,3.23492 -0.24466,4.07762 -0.0544,0.7884 -0.14949,1.9029 -0.28543,3.3437 1.68542,6.7689 4.94752,12.1376 9.78631,16.1066 3.96888,3.2892 8.97077,5.4911 15.00566,6.6057 0.19029,0.027 0.28543,0.1495 0.28543,0.367 0,0.2718 -0.12233,0.4213 -0.36699,0.4485 -1.08737,0.3262 -1.84852,0.7476 -2.28347,1.2641 -0.43495,0.4892 -0.81552,1.264 -1.14173,2.3242 -0.16311,0.6252 -0.5165,0.9379 -1.06018,0.9379 -0.43495,0 -1.18251,-0.2447 -2.2427,-0.734 -4.24073,-2.066 -7.897,-4.9068 -10.96881,-8.5222 -3.45239,-4.1592 -5.98052,-9.2018 -7.58439,-15.128 z m -1.26407,-28.82879 c 6.60576,1.95726 12.01541,4.48539 16.22896,7.58439 3.56113,2.63686 5.34169,5.04266 5.34169,7.21739 0,0.7068 -0.20387,1.30484 -0.61164,1.79416 -0.40777,0.46213 -0.92427,0.69319 -1.54951,0.69319 -0.95143,0 -2.59607,-1.3592 -4.93392,-4.07763 -4.24073,-4.83877 -9.20184,-8.79407 -14.88333,-11.86588 -0.62524,1.60386 -1.45436,3.13977 -2.48735,4.60772 -3.34366,4.67568 -9.24262,8.3999 -17.6969,11.17269 l -0.12234,0 c -0.32621,0 -0.48931,-0.23107 -0.48931,-0.6932 0,-0.19029 0.068,-0.32621 0.20389,-0.40776 7.17662,-3.83297 11.98821,-7.81546 14.43479,-11.94745 2.60968,-4.32228 3.91452,-11.24064 3.91452,-20.75511 0,-1.41358 -0.10874,-2.89512 -0.32621,-4.44461 3.66987,0.43495 5.96693,0.80193 6.89119,1.10096 0.67961,0.21747 1.01941,0.58445 1.01941,1.10095 0,0.62524 -0.8563,1.26407 -2.56891,1.91649 0,1.06019 -0.0544,2.5825 -0.1631,4.56694 -0.43495,5.30092 -1.16892,9.4465 -2.20193,12.43676 z m -30.62296,48.44219 -11.62124,0 0,3.2621 c 0,1.4407 -0.95145,2.1611 -2.85433,2.1611 -1.3864,0 -2.0796,-0.5845 -2.0796,-1.7534 l 0.24467,-14.1902 c 0,-5.7901 -0.13593,-9.9085 -0.40777,-12.3551 2.14755,0.8699 4.06403,1.8214 5.74945,2.8544 l 10.56105,0 c 1.5495,-1.6583 2.48735,-2.4874 2.81356,-2.4874 0.40777,0 1.44077,0.666 3.099,1.998 0.89708,0.7068 1.34562,1.2913 1.34562,1.7534 0,0.5981 -0.69319,1.3457 -2.07959,2.2428 l 0,5.0153 0.24465,13.2524 c 0,1.3863 -0.97863,2.0795 -2.93589,2.0795 -1.38639,0 -2.07958,-0.5573 -2.07958,-1.6718 z m 0,-2.0796 0,-15.8619 c -3.78828,0 -7.57657,0 -11.36486,0 -0.0855,5.2873 -0.17092,10.5746 -0.25638,15.8619 z m 17.86,-59.12556 c 0.0544,-0.29903 0.23105,-0.44854 0.53009,-0.44854 0.32621,0 0.51649,0.12233 0.57087,0.36699 0.27183,1.41358 0.40776,2.97667 0.40776,4.68926 0,3.12618 -0.57087,5.58636 -1.7126,7.38051 -0.97863,1.52232 -2.21552,2.28348 -3.71064,2.28348 -0.81553,0 -1.49513,-0.28544 -2.03881,-0.85631 -0.48932,-0.48932 -0.73398,-1.04659 -0.73398,-1.67183 0,-0.92425 0.66601,-1.83493 1.99804,-2.73201 2.63687,-1.79416 4.19995,-4.798 4.68927,-9.01155 z m 0,33.84426 c 0.0272,-0.2446 0.17673,-0.3669 0.44854,-0.3669 0.32621,0 0.5165,0.1359 0.57086,0.4077 0.27185,1.6854 0.40777,3.0854 0.40777,4.2 0,3.1261 -0.65242,5.6407 -1.95726,7.5436 -1.11455,1.6039 -2.46017,2.4058 -4.03685,2.4058 -0.76116,0 -1.42718,-0.2855 -1.99804,-0.8563 -0.46213,-0.4894 -0.69319,-1.0466 -0.69319,-1.6718 0,-1.0875 0.63883,-2.0253 1.91647,-2.8136 3.07182,-1.8757 4.85238,-4.8252 5.3417,-8.8485 z m -34.1705,-34.21124 -0.81553,-3.13977 c 2.17473,0.38057 4.14558,0.57086 5.91256,0.57086 l 9.62319,0 c 2.09319,-2.44658 3.34365,-3.66986 3.75142,-3.66986 0.46213,0 1.84852,0.97863 4.15917,2.93589 1.00583,0.81553 1.50873,1.50872 1.50873,2.07958 0,0.48932 -0.35339,0.73398 -1.06019,0.73398 l -17.98232,0 c -1.71261,0 -3.41162,0.16311 -5.09703,0.48932 z m -3.42521,11.05036 -0.81552,-3.13978 c 1.8757,0.38059 3.91452,0.57088 6.11643,0.57088 l 14.84256,0 c 1.95726,-2.44658 3.15336,-3.66987 3.58831,-3.66987 0.5165,0 1.90289,0.95145 4.15918,2.85434 1.06018,0.92426 1.59027,1.61746 1.59027,2.07959 0,0.54368 -0.35339,0.81553 -1.06018,0.81553 l -23.12014,0 c -1.84852,0 -3.61549,0.1631 -5.30091,0.48931 z m 3.2621,11.00959 -0.81552,-3.13977 c 1.68541,0.38058 3.52034,0.57086 5.50478,0.57086 l 9.86786,0 c 1.84852,-2.28347 2.99026,-3.4252 3.42521,-3.4252 0.46213,0 1.76697,0.92426 3.91452,2.77278 0.95145,0.78835 1.42717,1.45437 1.42717,1.99805 0,0.48931 -0.36698,0.73396 -1.10096,0.73396 l -17.5338,0 c -1.44076,0 -3.00384,0.16311 -4.68926,0.48932 z m 0.0815,11.00959 -0.81553,-3.13977 c 1.73979,0.38058 3.57472,0.57087 5.5048,0.57087 l 10.11251,0 c 1.79416,-2.28347 2.9087,-3.42521 3.34365,-3.42521 0.46213,0 1.76697,0.92427 3.91452,2.77279 0.95145,0.78834 1.42717,1.45435 1.42717,1.99803 0,0.48929 -0.36698,0.73399 -1.10096,0.73399 l -17.77845,0 c -1.38639,0 -2.92229,0.1631 -4.60771,0.4893 z m 55.21106,-19.85804 c -0.0544,0.0544 -0.10872,0.0815 -0.1631,0.0815 -0.43496,0 -0.65243,-0.24465 -0.65243,-0.73397 0,-0.0815 0.0272,-0.1631 0.0815,-0.24466 2.14755,-2.36502 4.09122,-4.98829 5.83101,-7.86982 1.08737,-1.73979 1.83493,-3.38443 2.2427,-4.93392 4.40383,2.47376 6.60575,4.09122 6.60575,4.85238 0,0.6796 -0.86989,1.0194 -2.60969,1.0194 l -0.89707,0 c -3.45239,3.2621 -6.93197,5.87178 -10.43872,7.82904 z m 0.48932,34.08894 c -0.0544,0.054 -0.10872,0.081 -0.16311,0.081 -0.48931,0 -0.73398,-0.2311 -0.73398,-0.6932 0,-0.081 0.0271,-0.1495 0.0815,-0.2039 2.14755,-2.1475 4.17276,-4.6484 6.07566,-7.5028 1.3864,-2.1203 2.28347,-3.7786 2.69123,-4.9747 4.18636,2.4738 6.27955,4.132 6.27955,4.9747 0,0.5981 -0.74757,0.8971 -2.2427,0.8971 -0.38058,0 -0.80193,-0.027 -1.26407,-0.082 -3.28928,2.7727 -6.864,5.2738 -10.72415,7.5028 z"
         style="font-style:normal;font-variant:normal;font-weight:normal;font-stretch:normal;font-size:80px;line-height:125%;font-family:'Yu Mincho';-inkscape-font-specification:'Yu Mincho, Normal';text-align:start;writing-mode:lr-tb;text-anchor:start;fill:#ffffff"
         id="path9162"
         inkscape:connector-curvature="0"
         sodipodi:nodetypes="cccssccsccscccccscccscccccscsccccssccsccscccccsscccccscscccsscccccccscscscscccscscscsccccscscssscccscscssscccscscssscccscscsssccsscccssccccsscccssccc" />
      <g
         transform="matrix(0.5255446,0,0,0.54038571,-12.420917,741.25453)"
         style="font-style:normal;font-weight:normal;font-size:40px;line-height:125%;font-family:Sans;letter-spacing:0px;word-spacing:0px;fill:#000000;fill-opacity:1"
         id="flowRoot9164" />
      <path
         style="opacity:1;fill:#ffffff;fill-opacity:1;stroke:#ffffff;stroke-width:2.63254738;stroke-miterlimit:4;stroke-dasharray:none;stroke-opacity:1"
         id="path9172"
         sodipodi:type="arc"
         sodipodi:cx="90.316132"
         sodipodi:cy="935.61609"
         sodipodi:rx="1.3328427"
         sodipodi:ry="1.3108953"
         sodipodi:start="0"
         sodipodi:end="3.6968396"
         d="m 91.648974,935.61609 a 1.3328427,1.3108953 0 0 1 -0.890221,1.2365 1.3328427,1.3108953 0 0 1 -1.481486,-0.41525 1.3328427,1.3108953 0 0 1 -0.09375,-1.51229"
         sodipodi:open="true" />
    </g>
  </g>
</svg>
